<?xml version="1.0" encoding="UTF-8" standalone="no"?>
<svg
   xmlns:osb="http://www.openswatchbook.org/uri/2009/osb"
   xmlns:dc="http://purl.org/dc/elements/1.1/"
   xmlns:cc="http://creativecommons.org/ns#"
   xmlns:rdf="http://www.w3.org/1999/02/22-rdf-syntax-ns#"
   xmlns:svg="http://www.w3.org/2000/svg"
   xmlns="http://www.w3.org/2000/svg"
   xmlns:xlink="http://www.w3.org/1999/xlink"
   xmlns:sodipodi="http://sodipodi.sourceforge.net/DTD/sodipodi-0.dtd"
   xmlns:inkscape="http://www.inkscape.org/namespaces/inkscape"
   viewBox="0.0 0.0 348.0 348.0"
   fill="none"
   version="1.1"
   id="svg26"
   sodipodi:docname="Crime Watch.svg"
   inkscape:version="0.92.3 (2405546, 2018-03-11)">
  <metadata
     id="metadata32">
    <rdf:RDF>
      <cc:Work
         rdf:about="">
        <dc:format>image/svg+xml</dc:format>
        <dc:type
           rdf:resource="http://purl.org/dc/dcmitype/StillImage" />
      </cc:Work>
    </rdf:RDF>
  </metadata>
  <defs
     id="defs30">
    <linearGradient
       id="linearGradient6097"
       osb:paint="solid">
      <stop
         style="stop-color:#000000;stop-opacity:1;"
         offset="0"
         id="stop6095" />
    </linearGradient>
    <linearGradient
       id="linearGradient6045"
       osb:paint="solid">
      <stop
         style="stop-color:#000000;stop-opacity:1;"
         offset="0"
         id="stop6043" />
    </linearGradient>
    <linearGradient
       id="linearGradient4581"
       osb:paint="solid">
      <stop
         style="stop-color:#000000;stop-opacity:1;"
         offset="0"
         id="stop4579" />
    </linearGradient>
    <inkscape:perspective
       sodipodi:type="inkscape:persp3d"
       inkscape:vp_x="5.079 : 342.224 : 1"
       inkscape:vp_y="0 : 1000 : 0"
       inkscape:vp_z="341.992 : 342.224 : 1"
       inkscape:persp3d-origin="174 : 116 : 1"
       id="perspective34" />
    <linearGradient
       inkscape:collect="always"
       xlink:href="#linearGradient6045"
       id="linearGradient6047"
       x1="29.737804"
       y1="122.25916"
       x2="167.32927"
       y2="122.25916"
       gradientUnits="userSpaceOnUse"
       gradientTransform="matrix(1.1601215,0,0,1.2284986,-33.907979,-35.548685)" />
  </defs>
  <sodipodi:namedview
     pagecolor="#ffffff"
     bordercolor="#666666"
     borderopacity="1"
     objecttolerance="10"
     gridtolerance="10"
     guidetolerance="10"
     inkscape:pageopacity="0"
     inkscape:pageshadow="2"
     inkscape:window-width="1116"
     inkscape:window-height="925"
     id="namedview28"
     showgrid="false"
     inkscape:zoom="1.3563218"
     inkscape:cx="7.555793"
     inkscape:cy="134.64369"
     inkscape:window-x="724"
     inkscape:window-y="390"
     inkscape:window-maximized="0"
     inkscape:current-layer="svg26" />
  <path
     d="M5.079 5.776h336.913v337.67H5.08z"
     stroke-width="2"
     stroke="#000"
     id="path22" />
  <path
     d="m 23.208576,313.35061 c 0,-8.376 6.966,-15.165 15.56,-15.165 4.126,0 8.084,1.597 11.001,4.441 2.918,2.844 4.558,6.702 4.558,10.724 0,8.376 -6.966,15.165 -15.56,15.165 -8.593,0 -15.559,-6.79 -15.559,-15.165 z"
     id="path24"
     inkscape:connector-curvature="0"
     style="stroke:#000000;stroke-width:2" />
  <rect
     style="opacity:0;fill:none;fill-opacity:1;fill-rule:nonzero;stroke:url(#linearGradient6047);stroke-width:5.96910334;stroke-miterlimit:4;stroke-dasharray:none;stroke-opacity:1"
     id="rect4577"
     width="158.46269"
     height="154.99307"
     x="1.1715482"
     y="37.149982" />
  <path
     style="fill:none;stroke:#000000;stroke-width:1.16296732px;stroke-linecap:butt;stroke-linejoin:miter;stroke-opacity:1"
     d="M 10.5699,13.362215 V 266.06853"
     id="path6137"
     inkscape:connector-curvature="0" />
  <path
     style="fill:none;stroke:#000000;stroke-width:1.16303062px;stroke-linecap:butt;stroke-linejoin:miter;stroke-opacity:1"
     d="M 10.562387,266.09208 333.89735,264.37289 V 13.369965"
     id="path6139"
     inkscape:connector-curvature="0" />
  <path
     style="fill:none;stroke:#000000;stroke-width:1.1938206px;stroke-linecap:butt;stroke-linejoin:miter;stroke-opacity:1"
     d="M 10.5699,13.362215 H 333.88987"
     id="path6141"
     inkscape:connector-curvature="0" />
  <path
     style="fill:none;stroke:#000000;stroke-width:1px;stroke-linecap:butt;stroke-linejoin:miter;stroke-opacity:1"
     d="m 79.105778,281.39107 -0.215951,46.70215"
     id="path6145"
     inkscape:connector-curvature="0"
     sodipodi:nodetypes="cc" />
  <path
     style="fill:none;stroke:#000000;stroke-width:1px;stroke-linecap:butt;stroke-linejoin:miter;stroke-opacity:1"
     d="M 78.889831,328.09322 148.9322,327.35593"
     id="path6149"
     inkscape:connector-curvature="0" />
  <path
     style="fill:none;stroke:#000000;stroke-width:1px;stroke-linecap:butt;stroke-linejoin:miter;stroke-opacity:1"
     d="m 148.9322,327.35593 -0.19743,-46.09137"
     id="path6151"
     inkscape:connector-curvature="0"
     sodipodi:nodetypes="cc" />
  <path
     style="fill:none;stroke:#000000;stroke-width:1px;stroke-linecap:butt;stroke-linejoin:miter;stroke-opacity:1"
     d="m 79.105778,281.39107 69.628992,-0.12651"
     id="path6153"
     inkscape:connector-curvature="0"
     sodipodi:nodetypes="cc" />
  <path
     sodipodi:nodetypes="cc"
     inkscape:connector-curvature="0"
     id="path48"
     d="m 165.12711,280.86973 -0.21595,46.70215"
     style="fill:none;stroke:#000000;stroke-width:1px;stroke-linecap:butt;stroke-linejoin:miter;stroke-opacity:1" />
  <path
     inkscape:connector-curvature="0"
     id="path50"
     d="m 164.91116,327.57188 70.04237,-0.73729"
     style="fill:none;stroke:#000000;stroke-width:1px;stroke-linecap:butt;stroke-linejoin:miter;stroke-opacity:1" />
  <path
     sodipodi:nodetypes="cc"
     inkscape:connector-curvature="0"
     id="path52"
     d="M 234.95353,326.83459 234.7561,280.74322"
     style="fill:none;stroke:#000000;stroke-width:1px;stroke-linecap:butt;stroke-linejoin:miter;stroke-opacity:1" />
  <path
     sodipodi:nodetypes="cc"
     inkscape:connector-curvature="0"
     id="path54"
     d="m 165.12711,280.86973 69.62899,-0.12651"
     style="fill:none;stroke:#000000;stroke-width:1px;stroke-linecap:butt;stroke-linejoin:miter;stroke-opacity:1" />
  <path
     style="fill:none;stroke:#000000;stroke-width:1px;stroke-linecap:butt;stroke-linejoin:miter;stroke-opacity:1"
     d="m 254.79785,280.34839 -0.21595,46.70215"
     id="path56"
     inkscape:connector-curvature="0"
     sodipodi:nodetypes="cc" />
  <path
     style="fill:none;stroke:#000000;stroke-width:1px;stroke-linecap:butt;stroke-linejoin:miter;stroke-opacity:1"
     d="m 254.5819,327.05054 70.04237,-0.73729"
     id="path58"
     inkscape:connector-curvature="0" />
  <path
     style="fill:none;stroke:#000000;stroke-width:1px;stroke-linecap:butt;stroke-linejoin:miter;stroke-opacity:1"
     d="m 324.62427,326.31325 -0.19743,-46.09137"
     id="path60"
     inkscape:connector-curvature="0"
     sodipodi:nodetypes="cc" />
  <path
     style="fill:none;stroke:#000000;stroke-width:1px;stroke-linecap:butt;stroke-linejoin:miter;stroke-opacity:1"
     d="m 254.79785,280.34839 69.62899,-0.12651"
     id="path62"
     inkscape:connector-curvature="0"
     sodipodi:nodetypes="cc" />
  <rect
     style="fill:#000000"
     id="rect88"
     width="69.826424"
     height="45.964859"
     x="254.79785"
     y="280.34839" />
  <ellipse
     style="fill:#000000;stroke-width:1.1938206"
     id="path3794"
     cx="45.211323"
     cy="38.496693"
     rx="13.25783"
     ry="14.03924" />
  <ellipse
     style="fill:#000000;stroke-width:1.1938206"
     id="path3794-5"
     cx="77.28672"
     cy="38.949566"
     rx="13.25783"
     ry="14.03924" />
  <ellipse
     style="fill:#000000;stroke-width:1.1938206"
     id="path3794-6"
     cx="108.29294"
     cy="38.94957"
     rx="13.25783"
     ry="14.03924" />
  <ellipse
     style="fill:#000000;stroke-width:1.1938206"
     id="path3794-8"
     cx="141.22366"
     cy="38.723133"
     rx="13.25783"
     ry="14.03924" />
  <ellipse
     style="fill:#000000;stroke-width:1.1938206"
     id="path3794-65"
     cx="175.00974"
     cy="38.723133"
     rx="13.25783"
     ry="14.03924" />
  <ellipse
     style="fill:#000000;stroke-width:1.1938206"
     id="path3794-4"
     cx="208.04739"
     cy="38.723133"
     rx="13.25783"
     ry="14.03924" />
  <ellipse
     style="fill:#000000;stroke-width:1.1938206"
     id="path3794-5-6"
     cx="240.12279"
     cy="39.17601"
     rx="13.25783"
     ry="14.03924" />
  <ellipse
     style="fill:#000000;stroke-width:1.1938206"
     id="path3794-6-1"
     cx="271.129"
     cy="39.17601"
     rx="13.25783"
     ry="14.03924" />
  <ellipse
     style="fill:#000000;stroke-width:1.1938206"
     id="path3794-8-9"
     cx="304.05975"
     cy="38.949574"
     rx="13.25783"
     ry="14.03924" />
  <ellipse
     style="fill:#000000;stroke-width:1.1938206"
     id="path3794-3"
     cx="45.371693"
     cy="70.085274"
     rx="13.25783"
     ry="14.03924" />
  <ellipse
     style="fill:#000000;stroke-width:1.1938206"
     id="path3794-5-3"
     cx="77.44709"
     cy="70.538147"
     rx="13.25783"
     ry="14.03924" />
  <ellipse
     style="fill:#000000;stroke-width:1.1938206"
     id="path3794-6-5"
     cx="108.4533"
     cy="70.538155"
     rx="13.25783"
     ry="14.03924" />
  <ellipse
     style="fill:#000000;stroke-width:1.1938206"
     id="path3794-8-1"
     cx="141.38403"
     cy="70.311714"
     rx="13.25783"
     ry="14.03924" />
  <ellipse
     style="fill:#000000;stroke-width:1.1938206"
     id="path3794-65-3"
     cx="175.17012"
     cy="70.311714"
     rx="13.25783"
     ry="14.03924" />
  <ellipse
     style="fill:#000000;stroke-width:1.1938206"
     id="path3794-4-6"
     cx="208.20778"
     cy="70.311714"
     rx="13.25783"
     ry="14.03924" />
  <ellipse
     style="fill:#000000;stroke-width:1.1938206"
     id="path3794-5-6-0"
     cx="240.28316"
     cy="70.764587"
     rx="13.25783"
     ry="14.03924" />
  <ellipse
     style="fill:#000000;stroke-width:1.1938206"
     id="path3794-6-1-2"
     cx="271.28937"
     cy="70.764587"
     rx="13.25783"
     ry="14.03924" />
  <ellipse
     style="fill:#000000;stroke-width:1.1938206"
     id="path3794-8-9-0"
     cx="304.22015"
     cy="70.538155"
     rx="13.25783"
     ry="14.03924" />
  <ellipse
     style="fill:#000000;stroke-width:1.1938206"
     id="path3794-2"
     cx="45.719173"
     cy="101.84325"
     rx="13.25783"
     ry="14.03924" />
  <ellipse
     style="fill:#000000;stroke-width:1.1938206"
     id="path3794-5-65"
     cx="77.794579"
     cy="102.29612"
     rx="13.25783"
     ry="14.03924" />
  <ellipse
     style="fill:#000000;stroke-width:1.1938206"
     id="path3794-6-8"
     cx="108.80079"
     cy="102.29612"
     rx="13.25783"
     ry="14.03924" />
  <ellipse
     style="fill:#000000;stroke-width:1.1938206"
     id="path3794-8-4"
     cx="141.73151"
     cy="102.06969"
     rx="13.25783"
     ry="14.03924" />
  <ellipse
     style="fill:#000000;stroke-width:1.1938206"
     id="path3794-65-0"
     cx="175.51759"
     cy="102.06969"
     rx="13.25783"
     ry="14.03924" />
  <ellipse
     style="fill:#000000;stroke-width:1.1938206"
     id="path3794-4-8"
     cx="208.55527"
     cy="102.06969"
     rx="13.25783"
     ry="14.03924" />
  <ellipse
     style="fill:#000000;stroke-width:1.1938206"
     id="path3794-5-6-7"
     cx="240.63065"
     cy="102.52257"
     rx="13.25783"
     ry="14.03924" />
  <ellipse
     style="fill:#000000;stroke-width:1.1938206"
     id="path3794-6-1-0"
     cx="271.63687"
     cy="102.52257"
     rx="13.25783"
     ry="14.03924" />
  <ellipse
     style="fill:#000000;stroke-width:1.1938206"
     id="path3794-8-9-5"
     cx="304.56763"
     cy="102.29612"
     rx="13.25783"
     ry="14.03924" />
  <ellipse
     style="fill:#000000;stroke-width:1.1938206"
     id="path3794-3-5"
     cx="45.879547"
     cy="134.33757"
     rx="13.25783"
     ry="14.03924" />
  <ellipse
     style="fill:#000000;stroke-width:1.1938206"
     id="path3794-5-3-5"
     cx="77.954941"
     cy="134.79045"
     rx="13.25783"
     ry="14.03924" />
  <ellipse
     style="fill:#000000;stroke-width:1.1938206"
     id="path3794-6-5-1"
     cx="108.96117"
     cy="134.79048"
     rx="13.25783"
     ry="14.03924" />
  <ellipse
     style="fill:#000000;stroke-width:1.1938206"
     id="path3794-8-1-4"
     cx="141.89188"
     cy="134.56404"
     rx="13.25783"
     ry="14.03924" />
  <ellipse
     style="fill:#000000;stroke-width:1.1938206"
     id="path3794-65-3-6"
     cx="175.67798"
     cy="134.56404"
     rx="13.25783"
     ry="14.03924" />
  <ellipse
     style="fill:#000000;stroke-width:1.1938206"
     id="path3794-4-6-4"
     cx="208.71565"
     cy="134.56404"
     rx="13.25783"
     ry="14.03924" />
  <ellipse
     style="fill:#000000;stroke-width:1.1938206"
     id="path3794-5-6-0-2"
     cx="240.79102"
     cy="135.01691"
     rx="13.25783"
     ry="14.03924" />
  <ellipse
     style="fill:#000000;stroke-width:1.1938206"
     id="path3794-6-1-2-9"
     cx="271.79724"
     cy="135.01691"
     rx="13.25783"
     ry="14.03924" />
  <ellipse
     style="fill:#000000;stroke-width:1.1938206"
     id="path3794-8-9-0-6"
     cx="304.728"
     cy="134.79048"
     rx="13.25783"
     ry="14.03924" />
  <ellipse
     style="fill:#000000;stroke-width:1.1938206"
     id="path3794-2-0"
     cx="46.146839"
     cy="167.0578"
     rx="13.25783"
     ry="14.03924" />
  <ellipse
     style="fill:#000000;stroke-width:1.1938206"
     id="path3794-5-65-3"
     cx="78.222244"
     cy="167.51067"
     rx="13.25783"
     ry="14.03924" />
  <ellipse
     style="fill:#000000;stroke-width:1.1938206"
     id="path3794-6-8-0"
     cx="109.22845"
     cy="167.51067"
     rx="13.25783"
     ry="14.03924" />
  <ellipse
     style="fill:#000000;stroke-width:1.1938206"
     id="path3794-8-4-6"
     cx="142.15919"
     cy="167.28423"
     rx="13.25783"
     ry="14.03924" />
  <ellipse
     style="fill:#000000;stroke-width:1.1938206"
     id="path3794-65-0-6"
     cx="175.94524"
     cy="167.28423"
     rx="13.25783"
     ry="14.03924" />
  <ellipse
     style="fill:#000000;stroke-width:1.1938206"
     id="path3794-4-8-6"
     cx="208.98294"
     cy="167.28423"
     rx="13.25783"
     ry="14.03924" />
  <ellipse
     style="fill:#000000;stroke-width:1.1938206"
     id="path3794-5-6-7-4"
     cx="241.05833"
     cy="167.73711"
     rx="13.25783"
     ry="14.03924" />
  <ellipse
     style="fill:#000000;stroke-width:1.1938206"
     id="path3794-6-1-0-1"
     cx="272.06454"
     cy="167.73711"
     rx="13.25783"
     ry="14.03924" />
  <ellipse
     style="fill:#000000;stroke-width:1.1938206"
     id="path3794-8-9-5-8"
     cx="304.9953"
     cy="167.51067"
     rx="13.25783"
     ry="14.03924" />
  <ellipse
     style="fill:#000000;stroke-width:1.1938206"
     id="path3794-3-5-3"
     cx="46.307213"
     cy="199.55212"
     rx="13.25783"
     ry="14.03924" />
  <ellipse
     style="fill:#000000;stroke-width:1.1938206"
     id="path3794-5-3-5-8"
     cx="78.382599"
     cy="200.00499"
     rx="13.25783"
     ry="14.03924" />
  <ellipse
     style="fill:#000000;stroke-width:1.1938206"
     id="path3794-6-5-1-0"
     cx="109.38882"
     cy="200.005"
     rx="13.25783"
     ry="14.03924" />
  <ellipse
     style="fill:#000000;stroke-width:1.1938206"
     id="path3794-8-1-4-2"
     cx="142.31955"
     cy="199.77856"
     rx="13.25783"
     ry="14.03924" />
  <ellipse
     style="fill:#000000;stroke-width:1.1938206"
     id="path3794-65-3-6-0"
     cx="176.10562"
     cy="199.77856"
     rx="13.25783"
     ry="14.03924" />
  <ellipse
     style="fill:#000000;stroke-width:1.1938206"
     id="path3794-4-6-4-9"
     cx="209.14331"
     cy="199.77856"
     rx="13.25783"
     ry="14.03924" />
  <ellipse
     style="fill:#000000;stroke-width:1.1938206"
     id="path3794-5-6-0-2-4"
     cx="241.21867"
     cy="200.23143"
     rx="13.25783"
     ry="14.03924" />
  <ellipse
     style="fill:#000000;stroke-width:1.1938206"
     id="path3794-6-1-2-9-0"
     cx="272.22495"
     cy="200.23143"
     rx="13.25783"
     ry="14.03924" />
  <ellipse
     style="fill:#000000;stroke-width:1.1938206"
     id="path3794-8-9-0-6-4"
     cx="305.1557"
     cy="200.005"
     rx="13.25783"
     ry="14.03924" />
  <ellipse
     style="fill:#000000;stroke-width:1.1938206"
     id="path3794-3-5-3-8"
     cx="46.22702"
     cy="233.12161"
     rx="13.25783"
     ry="14.03924" />
  <ellipse
     style="fill:#000000;stroke-width:1.1938206"
     id="path3794-5-3-5-8-2"
     cx="78.302414"
     cy="233.57448"
     rx="13.25783"
     ry="14.03924" />
  <ellipse
     style="fill:#000000;stroke-width:1.1938206"
     id="path3794-6-5-1-0-5"
     cx="109.30862"
     cy="233.57449"
     rx="13.25783"
     ry="14.03924" />
  <ellipse
     style="fill:#000000;stroke-width:1.1938206"
     id="path3794-8-1-4-2-3"
     cx="142.23935"
     cy="233.34805"
     rx="13.25783"
     ry="14.03924" />
  <ellipse
     style="fill:#000000;stroke-width:1.1938206"
     id="path3794-65-3-6-0-3"
     cx="176.02544"
     cy="233.34805"
     rx="13.25783"
     ry="14.03924" />
  <ellipse
     style="fill:#000000;stroke-width:1.1938206"
     id="path3794-4-6-4-9-8"
     cx="209.06313"
     cy="233.34805"
     rx="13.25783"
     ry="14.03924" />
  <ellipse
     style="fill:#000000;stroke-width:1.1938206"
     id="path3794-5-6-0-2-4-7"
     cx="241.13849"
     cy="233.80092"
     rx="13.25783"
     ry="14.03924" />
  <ellipse
     style="fill:#000000;stroke-width:1.1938206"
     id="path3794-6-1-2-9-0-6"
     cx="272.14474"
     cy="233.80092"
     rx="13.25783"
     ry="14.03924" />
  <ellipse
     style="fill:#000000;stroke-width:1.1938206"
     id="path3794-8-9-0-6-4-1"
     cx="305.0755"
     cy="233.57449"
     rx="13.25783"
     ry="14.03924" />
  <path
     style="fill:none;stroke:#000000;stroke-width:1.18348134px;stroke-linecap:butt;stroke-linejoin:miter;stroke-opacity:1"
     d="M 124.33064,13.362215 V 86.353394"
     id="path4065"
     inkscape:connector-curvature="0" />
  <path
     style="fill:none;stroke:#000000;stroke-width:1.21489382px;stroke-linecap:butt;stroke-linejoin:miter;stroke-opacity:1"
     d="M 124.25219,85.825488 9.9414283,86.465956"
     id="path4069"
     inkscape:connector-curvature="0" />
  <path
     style="fill:none;stroke:#000000;stroke-width:1.1938206px;stroke-linecap:butt;stroke-linejoin:miter;stroke-opacity:1"
     d="m 159.39974,12.909337 v 73.819229 l 96.40079,0.497029"
     id="path4071"
     inkscape:connector-curvature="0"
     sodipodi:nodetypes="ccc" />
  <path
     style="fill:none;stroke:#000000;stroke-width:1.22470295px;stroke-linecap:butt;stroke-linejoin:miter;stroke-opacity:1"
     d="m 255.80053,87.225595 0.3024,-73.132434"
     id="path4073"
     inkscape:connector-curvature="0" />
  <path
     style="fill:none;stroke:#000000;stroke-width:1.1938206px;stroke-linecap:butt;stroke-linejoin:miter;stroke-opacity:1"
     d="m 62.318201,217.15763 62.867769,-0.45287"
     id="path4075"
     inkscape:connector-curvature="0" />
  <path
     style="fill:none;stroke:#000000;stroke-width:1.1938206px;stroke-linecap:butt;stroke-linejoin:miter;stroke-opacity:1"
     d="m 62.318201,217.15763 0.427672,-66.57317 62.012427,-0.45287 0.42767,66.57317"
     id="path4077"
     inkscape:connector-curvature="0" />
  <path
     style="fill:none;stroke:#000000;stroke-width:1.1938206px;stroke-linecap:butt;stroke-linejoin:miter;stroke-opacity:1"
     d="m 192.29449,151.47338 0.30241,113.04245"
     id="path4079"
     inkscape:connector-curvature="0" />
  <path
     style="fill:none;stroke:#000000;stroke-width:1.1938206px;stroke-linecap:butt;stroke-linejoin:miter;stroke-opacity:1"
     d="M 289.67042,263.87537 289.368,151.47338 h -97.07351"
     id="path4081"
     inkscape:connector-curvature="0"
     sodipodi:nodetypes="ccc" />
  <path
     style="fill:#000000;fill-opacity:1;stroke-width:0.64265525"
     id="path215"
     d="m 87.889645,301.35393 c 0.0226,-0.22539 -0.0641,-0.43924 -0.15199,-0.63608 -0.13207,-0.30216 -0.33631,-0.55186 -0.53432,-0.80177 -0.18184,-0.24071 -0.31578,-0.24118 -0.55898,-0.32609 -0.19901,-0.0597 -0.40706,-0.0603 -0.6117,-0.0675 -0.32892,-0.004 -0.66004,-0.0399 -0.98534,0.023 -0.0575,0.0225 -0.11504,0.0448 -0.1725,0.0674 -0.24147,0.095 -0.10706,0.0334 -0.33263,0.15995 -0.0512,0.0288 -0.20417,0.1165 -0.1544,0.0847 4.47462,-2.85656 3.32793,-2.11642 2.44287,-1.54474 -0.21581,0.13813 -0.36292,0.35475 -0.51219,0.56949 -0.13696,0.22123 -0.26302,0.45648 -0.34635,0.70901 -0.0978,0.34852 -0.15935,0.70577 -0.21135,1.06543 -0.0576,0.47079 -0.0605,0.94536 -0.042,1.41904 0.0306,0.5512 0.1716,1.07385 0.36511,1.57858 0.10637,0.35133 0.28028,0.6617 0.44514,0.98009 0.1111,0.20966 0.2736,0.37037 0.42291,0.54444 0.21868,0.21062 0.46024,0.38662 0.69587,0.57242 0.32012,0.23203 0.65673,0.43287 0.99083,0.63808 0.23974,0.11933 0.47057,0.25558 0.68755,0.42004 0.22665,0.19236 0.41555,0.43198 0.58204,0.68791 0.14005,0.26652 0.19991,0.56761 0.24362,0.86876 0.0286,0.26224 0.0395,0.52567 0.0367,0.7896 -0.0135,0.29624 -0.004,0.59283 -0.004,0.8892 -0.005,0.24549 -0.0195,0.49378 -0.0697,0.73334 -0.0604,0.25916 -0.19135,0.47961 -0.31708,0.70351 -0.14391,0.22862 -0.27558,0.46523 -0.40473,0.70423 -0.109,0.21243 -0.22797,0.42029 -0.35767,0.61794 -0.10163,0.11032 -0.16833,0.257 -0.27636,0.36072 -0.0398,0.0381 -0.0859,0.0674 -0.12654,0.10428 -0.70703,-0.18983 -2.07308,1.83643 -3.27501,1.87804 -0.25246,0.002 -0.50517,-0.003 -0.75776,-0.003 -0.25457,0.002 -0.50914,5.1e-4 -0.7637,0.004 -0.2058,0.001 -0.4116,0.002 -0.6174,0.004 -0.23425,0.0336 -0.31764,-0.0673 -0.50283,-0.19038 -0.1492,-0.12588 -0.24039,-0.3096 -0.32506,-0.49082 0,0 2.78341,-1.76474 2.78341,-1.76474 v 0 c 0.0559,0.12103 0.11682,0.24845 0.23011,0.31264 0.13458,0.0785 0.25341,0.0404 0.40211,0.0462 0.20205,0.002 0.4041,0.003 0.60613,0.005 0.24969,0.004 0.4994,0.005 0.74911,0.005 0.25206,-0.003 0.50633,-4.4e-4 0.75434,-0.0581 1.08073,-0.34179 2.63205,-1.88917 -2.27523,1.53864 0.25745,-0.13012 -0.12849,0.0716 0.14144,-0.0939 0.0273,-0.0167 0.0591,-0.0226 0.0868,-0.0384 0.0959,-0.0546 0.17004,-0.13789 0.22883,-0.23715 0.0226,-0.0254 0.12138,-0.13474 0.14068,-0.16312 0.0887,-0.13041 0.15259,-0.28284 0.2537,-0.40365 0.12235,-0.2451 0.24892,-0.48683 0.38942,-0.71965 0.12336,-0.19656 0.25121,-0.39458 0.34634,-0.60882 0.0775,-0.20659 0.0937,-0.42602 0.12572,-0.64596 6.1e-4,-0.29494 0.0124,-0.5901 -6.1e-4,-0.88491 -0.004,-0.251 0.005,-0.50242 -0.0132,-0.7529 -0.0213,-0.25103 -0.0618,-0.49689 -0.17345,-0.72032 -0.13407,-0.22917 -0.30462,-0.43023 -0.51533,-0.57423 -0.21564,-0.15173 -0.45043,-0.26286 -0.66489,-0.41657 -0.32149,-0.2279 -0.6415,-0.45853 -0.9714,-0.67138 -0.26843,-0.18221 -0.54926,-0.35067 -0.77505,-0.59804 -0.18162,-0.18724 -0.33172,-0.40003 -0.46023,-0.6357 -0.16623,-0.3386 -0.30495,-0.68689 -0.4026,-1.05786 -0.18659,-0.54273 -0.35044,-1.09724 -0.41936,-1.67547 -0.027,-0.48327 -0.0365,-0.96705 -0.0151,-1.45105 0.0227,-0.37284 0.1022,-0.73399 0.17014,-1.09893 0.0142,-0.0901 0.0318,-0.22611 0.06,-0.31363 0.057,-0.17705 0.17107,-0.32981 0.23344,-0.50461 0.0889,-0.15837 0.18802,-0.30325 0.29009,-0.45063 0.0297,-0.0429 0.0517,-0.0924 0.0841,-0.13282 0.0325,-0.0406 0.0728,-0.0723 0.10927,-0.10851 0.96371,-0.86967 0.17219,-0.16753 2.96457,-1.91286 0.21385,-0.13367 0.47585,-0.17163 0.71271,-0.21657 0.34714,-0.0172 0.6951,-0.007 1.04256,-0.006 0.23045,0.0127 0.45872,0.0433 0.67483,0.13962 0.25579,0.10017 0.46237,0.26883 0.6326,0.50512 0.19941,0.27865 0.41038,0.55016 0.56875,0.8612 0.0412,0.0788 0.10871,0.20252 0.14189,0.28647 0.0599,0.15153 0.0847,0.31958 0.13308,0.47549 0,0 -2.87068,1.62383 -2.87068,1.62383 z"
     inkscape:connector-curvature="0" />
  <path
     style="fill:#000000;fill-opacity:1;stroke-width:0.64265525"
     id="path217"
     d="m 91.281545,299.82377 c 0.95519,-0.82204 2.02072,-1.81125 3.25985,-1.93651 0.20584,-0.0811 0.3268,-0.11118 0.53342,-0.017 0.19718,0.11921 0.31383,0.31135 0.39015,0.53925 0.086,0.25022 0.10073,0.51743 0.11599,0.78174 0.0169,0.33194 -0.004,0.66439 -0.004,0.99658 0.003,0.37193 0.004,0.74339 -0.004,1.11517 -0.013,0.46557 -0.0948,0.92315 -0.12843,1.38717 -0.058,0.52843 -0.0903,1.05959 -0.10998,1.59128 -0.0165,0.55131 -0.023,1.10263 -0.021,1.65419 -0.007,0.54654 0.004,1.09301 0.005,1.63953 -0.008,0.49428 0.003,0.98856 0.0107,1.48277 0.004,0.3869 0.002,0.77382 0.0143,1.16057 0.002,0.21935 0.0242,0.4385 0.0925,0.64512 0.0646,0.17198 0.19594,0.28611 0.30857,0.4173 0.13298,0.13086 0.21534,0.31592 0.36491,0.42456 0.12525,0.11709 0.28725,0.18496 0.44273,0.23926 0.22659,0.0639 0.46253,0.0667 0.69497,0.0692 0.22133,-6.7e-4 0.44263,-0.002 0.66395,-0.004 0.25068,0.008 0.41083,0.0273 0.62342,-0.13847 -5.18468,2.89765 -3.00384,2.13395 -2.19695,1.31212 0.10013,-0.10197 0.20756,-0.23998 0.29778,-0.3511 0.44183,-0.59291 0.7958,-1.25678 1.13586,-1.92481 0.44946,-0.90883 0.77357,-1.87775 1.05195,-2.86431 0.2526,-0.84145 0.4413,-1.7013 0.59489,-2.57085 0.10078,-0.61588 0.12598,-1.24252 0.14501,-1.86687 0.0149,-0.52765 -0.0169,-1.05476 -0.026,-1.58202 -0.0151,-0.33246 -0.0553,-0.66269 -0.0816,-0.99425 -0.0332,-0.24282 -0.0638,-0.4854 -0.0855,-0.72991 -0.0373,-0.25252 -0.0706,-0.50578 -0.11276,-0.75737 -0.002,-0.008 -0.0545,-0.26012 -0.0576,-0.27069 -0.007,-0.0223 -0.0352,-0.0852 -0.029,-0.0628 0.0164,0.0592 0.01,0.20115 0.0596,0.17354 2.748525,-1.52 3.042515,-2.88171 2.726885,-1.57896 -0.0672,0.63222 -0.064,1.27116 -0.0726,1.90693 -0.008,0.84005 -0.0138,1.68008 -0.0156,2.52018 -0.004,0.76852 0.0103,1.53703 0.0332,2.30509 0.0186,0.51082 0.0188,1.02158 0.0168,1.53268 -0.0127,0.54538 -0.008,1.09053 -0.001,1.63587 0.0116,0.39107 0.009,0.78239 0.0377,1.17259 0.0224,0.24584 0.0716,0.48893 0.13524,0.72555 0.0699,0.21434 0.15044,0.42464 0.21957,0.64029 0.0928,0.29249 0.16965,0.58946 0.24059,0.88909 0.0432,0.28381 0.14311,0.54662 0.22722,0.81649 0.0386,0.13057 0.0691,0.26377 0.10264,0.396 0,0 -2.79593,1.68404 -2.79593,1.68404 v 0 c -0.0283,-0.1271 -0.0635,-0.25168 -0.0894,-0.37945 -0.0795,-0.28047 -0.19594,-0.5493 -0.23208,-0.84329 -0.0613,-0.28557 -0.13286,-0.56865 -0.22985,-0.84209 -0.087,-0.21957 -0.16541,-0.44328 -0.24846,-0.66449 -0.0635,-0.26399 -0.11829,-0.53203 -0.12868,-0.80628 -0.0312,-0.40735 -0.0227,-0.81367 -0.008,-1.22213 0.006,-0.54484 0.0115,-1.08949 -0.001,-1.63435 -0.002,-0.51745 -0.001,-1.03455 0.0168,-1.55173 0.0224,-0.78045 0.0375,-1.56134 0.0327,-2.34222 -0.002,-0.83393 -0.009,-1.66777 -0.0176,-2.50162 -0.008,-0.62013 -0.0102,-1.24119 -0.0486,-1.86013 -0.17652,-1.35323 -0.094,-0.35946 2.766315,-2.05781 0.0689,-0.0409 0.12022,0.37575 0.12684,0.41051 0.009,0.0466 0.0193,0.0928 0.0289,0.13919 0.0618,0.25651 0.0997,0.51571 0.1296,0.77891 0.043,0.25096 0.054,0.50762 0.0935,0.75959 0.009,0.34469 0.0358,0.68828 0.0528,1.03255 -0.005,0.54087 -0.0326,1.08144 -0.0301,1.62252 -0.002,0.64823 -0.0199,1.29769 -0.14153,1.93464 -0.17378,0.89435 -0.42986,1.76444 -0.66025,2.64214 -0.27813,0.99312 -0.59598,1.97216 -1.0062,2.90884 -0.097,0.21513 -0.25504,0.57238 -0.36259,0.78633 -0.196045,0.39 -0.420035,0.76219 -0.628005,1.14424 -0.12337,0.17718 -0.24635,0.36944 -0.38545,0.53207 -0.82214,0.96127 -2.62703,0.8559 -3.07835,2.04074 -0.23323,0.0516 -0.4673,0.0327 -0.70423,0.0366 -0.22142,-6.2e-4 -0.44312,6.8e-4 -0.66415,-0.0159 -0.25668,-0.0219 -0.51705,-0.0434 -0.75807,-0.15268 -0.18612,-0.0844 -0.37408,-0.17055 -0.51777,-0.33291 -0.13385,-0.14631 -0.24279,-0.31703 -0.38086,-0.45914 -0.14242,-0.16546 -0.28698,-0.33314 -0.37092,-0.54582 -0.082,-0.24825 -0.1345,-0.50667 -0.11376,-0.77298 0.0116,-0.39215 0.0109,-0.78447 0.0143,-1.17675 0.008,-0.4981 0.0181,-0.99626 0.0102,-1.49441 0.002,-0.54866 0.011,-1.09727 0.004,-1.64594 0.003,-0.55385 -0.004,-1.1077 0.009,-1.66142 0.0159,-0.5338 0.0483,-1.06602 0.0932,-1.59778 0.031,-0.45151 0.0727,-0.90133 0.11733,-1.35079 -0.008,-0.37056 -0.006,-0.74076 -0.002,-1.11145 0.001,-0.32167 -0.0149,-0.64286 -0.0181,-0.96445 -0.007,-0.22434 -0.0165,-0.45335 -0.0842,-0.66696 -0.0465,-0.11697 -0.0855,-0.24015 -0.22297,-0.23193 -0.15496,0.0318 -0.30322,0.10143 -0.46116,0.11922 -0.0834,0.028 -0.16274,0.0584 -0.2394,0.10548 -0.0262,0.0161 -0.10257,0.0686 -0.0766,0.052 2.70343,-1.73412 3.61621,-2.15604 2.61009,-1.6874 0,0 -2.99959,1.32431 -2.99959,1.32431 z"
     inkscape:connector-curvature="0" />
  <path
     style="fill:#000000;fill-opacity:1;stroke-width:0.64265525"
     id="path219"
     d="m 106.97473,297.92733 c -0.0346,0.52072 -0.11943,1.03371 -0.20343,1.54689 -0.11188,0.73697 -0.1591,1.48267 -0.18187,2.22874 -0.0179,0.71014 -0.005,1.42052 -0.002,2.13076 0.004,0.54682 0.0196,1.09342 0.027,1.64015 -2.4e-4,0.40683 0.0149,0.81346 0.0125,1.2203 -0.008,0.36861 0.006,0.73718 0.004,1.10575 -0.007,0.34417 0.0293,0.6868 0.0548,1.0293 0.0128,0.31391 0.0243,0.62787 0.0358,0.94184 0.008,0.20112 0.0102,0.4024 0.0114,0.60367 5.4e-4,0.11121 1.4e-4,0.22241 0.001,0.33362 0,0 -2.83992,1.65408 -2.83992,1.65408 v 0 c -0.0214,-0.12403 -0.0216,-0.24605 -0.0176,-0.37235 0.002,-0.2042 0.005,-0.40837 0.0104,-0.61249 0.007,-0.31174 0.0105,-0.62399 -0.008,-0.93537 -0.0148,-0.35103 -0.0574,-0.70022 -0.0604,-1.05153 -0.002,-0.37005 0.0118,-0.7401 0.004,-1.11019 -0.002,-0.41129 0.0126,-0.82239 0.0118,-1.23368 0.007,-0.55641 0.021,-1.11273 0.0239,-1.66923 0.003,-0.71927 0.0146,-1.43846 0.0287,-2.15755 0.0201,-0.75274 0.0397,-1.50664 0.14419,-2.25224 0.0498,-0.46932 0.14605,-0.94819 0.0791,-1.4198 0,0 2.86511,-1.62067 2.86511,-1.62067 z"
     inkscape:connector-curvature="0" />
  <path
     style="fill:#000000;fill-opacity:1;stroke-width:0.64265525"
     id="path221"
     d="m 104.49481,299.98036 c 0.1178,-0.30113 0.31112,-0.55124 0.4986,-0.8007 0.95133,-0.99724 2.14612,-1.76472 3.40781,-2.15316 0.25007,-0.0852 0.50733,-0.10311 0.76688,-0.10168 0.19502,0.0118 0.392,-0.0163 0.58683,-0.003 0.12123,0.008 0.17265,0.0282 0.29076,0.0601 0.26946,0.0932 0.50171,0.26258 0.69704,0.48552 0.16546,0.25302 0.32872,0.50877 0.47897,0.77341 0.12403,0.21465 0.18581,0.45738 0.24895,0.69953 0.0675,0.25528 0.0883,0.52144 0.0917,0.7863 0.0266,0.37259 -0.0381,0.7273 -0.1453,1.07806 -0.14268,0.40609 -0.40252,0.73678 -0.67375,1.04422 -0.94717,0.93306 -2.10795,1.45537 -3.22516,2.16629 -0.12702,0.0808 -0.14475,0.0815 -0.28211,0.13977 -0.25404,0.0864 -0.49649,0.21404 -0.75774,0.2721 -0.11414,0.0792 -0.24844,0.0864 -0.37321,0.12561 -0.26969,0.0847 0.13927,-0.0116 -0.16464,0.0547 -1.19771,0.38246 -1.02687,0.98415 2.45159,-1.60663 0.0702,-0.0523 -0.0705,-0.1709 -0.10078,-0.2586 -0.01,-0.0284 -0.0127,-0.0592 -0.019,-0.0887 0.28124,0.008 0.5626,0.0196 0.84422,0.0181 0.31976,10e-4 0.63942,-0.008 0.95912,-0.0114 0.24117,0.0251 0.47642,0.0784 0.70811,0.15543 0.27405,0.10761 0.5328,0.24414 0.78062,0.41204 0.24438,0.14769 0.48489,0.31329 0.69047,0.5226 0.12116,0.15207 0.25058,0.30332 0.34324,0.47989 0.0467,0.0889 0.0847,0.18296 0.12873,0.27347 0.13145,0.24643 0.2248,0.51628 0.29558,0.7909 0.0938,0.35117 0.15945,0.7106 0.20769,1.07275 0.0488,0.37267 0.0706,0.75032 0.0739,1.12682 0.008,0.33048 0.018,0.66032 -0.007,0.99004 -0.03,0.36192 -0.15013,0.7031 -0.28211,1.03231 -0.1448,0.35086 -0.33871,0.671 -0.55232,0.97398 -0.23065,0.30373 -0.48942,0.57604 -0.74985,0.84716 -1.12748,1.00699 -2.45234,1.70047 -3.70038,2.4945 -0.0537,0.0288 -0.10617,0.0606 -0.16112,0.0863 -0.0342,0.016 -0.27116,0.10551 -0.30836,0.12348 -0.12975,0.0626 -0.24424,0.14424 -0.37731,0.20025 -0.25264,0.16452 -0.54264,0.24481 -0.8292,0.29834 -0.14892,0.0421 -0.30523,0.0315 -0.45563,0.0594 -0.10862,0.0202 -0.21655,0.0616 -0.32508,0.0855 -0.0304,0.005 -0.0613,0.007 -0.0913,0.0144 -0.17974,0.0445 0.0121,0.0166 -0.17775,0.053 -0.10595,0.0202 -0.21492,0.0261 -0.32206,0.0318 -0.0378,0.002 -0.0759,-7e-5 -0.11335,0.005 -0.0709,0.0109 -0.13978,0.035 -0.2106,0.0466 -0.11409,0.0186 -0.22797,0.0267 -0.34294,0.0353 -0.23808,0.0114 -0.47637,0.009 -0.71459,0.011 -0.21984,-0.003 -0.43966,0.005 -0.6595,0.002 -0.13706,7e-5 -0.0678,5.2e-4 -0.20789,-10e-4 0,0 2.57956,-2.08031 2.57956,-2.08031 v 0 c 0.14354,-0.001 0.0732,-0.001 0.21108,-6.7e-4 0.21665,-10e-4 0.43328,0.007 0.64994,0.002 0.23372,-0.002 0.46799,-0.008 0.70043,-0.0371 0.22214,-0.0293 0.44167,-0.0785 0.66526,-0.093 0.19595,-0.0374 0.38744,-0.0956 0.58419,-0.12793 0.24655,-0.0483 0.49917,-0.0523 0.74099,-0.13178 0.27812,-0.0944 0.54547,-0.20901 0.80472,-0.35653 0.26466,-0.1452 0.54797,-0.2418 0.80555,-0.40426 -0.83719,0.53939 -1.67453,1.07847 -2.51156,1.61817 -0.0598,0.0385 0.1208,-0.0746 0.17974,-0.11466 0.23337,-0.1586 0.4598,-0.33181 0.6748,-0.51959 0.30889,-0.23896 -0.009,0.0231 0.273,-0.25993 0.0432,-0.0433 0.0949,-0.0752 0.13801,-0.11855 0.12532,-0.12608 0.22625,-0.28181 0.34672,-0.41324 0.23826,-0.25563 0.42636,-0.55523 0.58594,-0.87694 0.12906,-0.29513 0.26458,-0.59548 0.31991,-0.91945 0.0295,-0.32027 0.0401,-0.64011 0.0346,-0.9624 -0.008,-0.3634 -0.004,-0.72765 -0.0479,-1.08883 -0.0485,-0.3432 -0.11005,-0.68629 -0.20607,-1.01725 -0.0728,-0.2523 -0.16397,-0.4983 -0.27861,-0.73099 -0.10788,-0.25416 -0.21752,-0.4424 -0.40637,-0.63549 -0.20283,-0.17877 -0.41785,-0.33607 -0.64458,-0.47521 -0.2345,-0.13741 -0.48548,-0.24852 -0.74266,-0.32093 -0.21852,-0.0442 -0.43857,-0.0881 -0.66145,-0.0893 -0.31164,-0.002 -0.62325,-0.0105 -0.93494,-0.009 -0.31646,-0.003 -0.63696,0.0215 -0.95086,-0.0249 -0.048,-0.0437 -0.37808,-0.31031 -0.25,-0.40789 1.39257,-1.06078 1.92816,-1.49467 3.10395,-1.84165 0.17133,-0.0645 0.34872,-0.11306 0.52214,-0.17124 0.2377,-0.0956 0.47968,-0.17948 0.70941,-0.29768 0.96644,-0.55749 2.10134,-1.34063 -2.29583,1.50095 -0.0465,0.0301 0.0944,-0.0573 0.1399,-0.0892 0.11051,-0.0777 0.17324,-0.13594 0.27658,-0.22478 0.29064,-0.24361 0.53778,-0.54289 0.73227,-0.88564 0.11432,-0.30463 0.21463,-0.60378 0.17408,-0.94027 -0.0115,-0.23626 -0.0138,-0.4749 -0.0657,-0.70591 -0.0518,-0.21395 -0.11155,-0.4244 -0.20296,-0.62214 -0.12145,-0.24551 -0.26152,-0.48024 -0.43075,-0.68879 -0.17155,-0.15938 -0.35726,-0.2857 -0.58419,-0.31913 -0.27865,-0.0236 -0.55951,-0.0123 -0.83821,0.006 -0.24491,0.0311 -0.48727,0.0808 -0.71817,0.18028 -0.106,0.0469 -0.13272,0.0554 -0.23069,0.11062 -0.037,0.0209 -0.14518,0.089 -0.10936,0.0658 4.48597,-2.90184 3.297,-2.13836 2.35997,-1.52388 -0.19974,0.17306 -0.36382,0.39581 -0.49471,0.63676 0,0 -2.92773,1.50321 -2.92773,1.50321 z"
     inkscape:connector-curvature="0" />
  <path
     style="fill:#000000;fill-opacity:1;stroke-width:0.64265525"
     id="path229"
     d="m 117.39428,296.40274 c -0.0287,0.31809 -0.0353,0.63876 -0.0434,0.95829 -0.0271,0.68346 -0.0437,1.36744 -0.0482,2.05154 -0.0284,0.79647 0.009,1.59123 0.0427,2.38629 0.0703,0.64535 0.14927,1.28803 0.17834,1.93787 0.0267,0.61305 0.0383,1.22671 0.0526,1.84022 0.008,0.46822 0.008,0.9364 0.0162,1.4046 0.004,0.34019 0.0115,0.68047 0.0147,1.02073 -0.001,0.30282 -0.003,0.60559 0.001,0.90838 0.0107,0.24428 0.005,0.48858 0.005,0.73294 6.1e-4,0.2155 0.009,0.43092 0.005,0.6464 -0.002,0.23715 -0.006,0.47422 -0.004,0.71139 0.003,0.2014 0.006,0.40281 0.007,0.60423 0.003,0.18659 -6.1e-4,0.37308 -0.003,0.55963 -0.0127,0.25743 -0.0451,0.51407 -0.0826,0.76849 -0.0154,0.12118 -0.045,0.23912 -0.0725,0.35732 0,0 -2.88079,1.528 -2.88079,1.528 v 0 c 0.027,-0.11379 0.0554,-0.22707 0.093,-0.33724 0.0407,-0.2339 0.0638,-0.46852 0.0929,-0.70445 -0.002,-0.18551 -0.006,-0.37097 -0.003,-0.55652 10e-4,-0.20418 0.004,-0.40833 0.007,-0.61248 0.002,-0.23575 -10e-4,-0.47137 -0.004,-0.70709 -0.004,-0.2174 0.004,-0.43476 0.005,-0.65218 3e-5,-0.24629 -0.005,-0.4925 0.005,-0.73871 0.004,-0.30335 0.003,-0.6067 0.001,-0.91008 0.003,-0.34612 0.0107,-0.69229 0.0158,-1.03834 0.009,-0.47389 0.0113,-0.94779 0.0174,-1.42174 0.0101,-0.61392 0.0147,-1.22843 -0.0126,-1.84192 -0.04,-0.65274 -0.10239,-1.30239 -0.16375,-1.95301 -0.025,-0.80303 -0.0235,-1.60601 -0.0293,-2.40937 -0.004,-0.66593 -0.0206,-1.33175 -0.0482,-1.997 -0.008,-0.30313 -0.0138,-0.60774 -0.0434,-0.90921 0,0 2.87624,-1.62698 2.87624,-1.62698 z"
     inkscape:connector-curvature="0" />
  <path
     style="fill:#000000;fill-opacity:1;stroke-width:0.64265525"
     id="path247"
     d="m 123.89856,313.10386 c 0.0422,-0.39414 0.047,-0.79286 0.0583,-1.1894 0.0361,-0.74292 0.0308,-1.48739 0.0268,-2.23108 -0.008,-0.62735 -0.0191,-1.25464 -0.0247,-1.88203 -3.2e-4,-0.53266 -0.007,-1.06515 -0.005,-1.59781 0.005,-0.53342 -0.003,-1.06667 0.003,-1.60004 0.0248,-0.75767 0.037,-1.51555 0.037,-2.27373 -0.006,-0.67249 -0.0193,-1.34486 -0.0357,-2.01712 -0.0121,-0.38174 -0.024,-0.76345 -0.0343,-1.14525 -0.005,-0.28751 0.001,-0.57493 -0.002,-0.86248 -0.002,-0.0861 -3e-4,-0.16864 -0.0196,-0.25297 -0.0183,-0.0803 -0.0502,-0.10761 -0.0603,-0.0952 -0.0137,0.0168 -0.0268,0.0774 -0.009,0.0673 0.94183,-0.52108 1.8684,-1.07545 2.8026,-1.61317 -0.0237,10e-4 -0.0491,-0.007 -0.0711,0.003 -0.14108,0.0628 -0.2267,0.52726 -0.26396,0.67276 -0.11827,0.39918 -0.22683,0.80179 -0.35241,1.19825 -0.12666,0.42277 -0.25764,0.84414 -0.40857,1.25705 -0.16895,0.51758 -0.34458,1.0346 -0.47968,1.56469 -0.11286,0.47436 -0.23853,0.94535 -0.38522,1.40825 -0.1613,0.45561 -0.34805,0.89995 -0.52734,1.34728 -0.16452,0.37252 -0.3439,0.73634 -0.51783,1.10328 -0.14603,0.31637 -0.32368,0.61223 -0.48549,0.91814 -0.12841,0.27609 -0.26888,0.54506 -0.41376,0.81083 -0.1199,0.25124 -0.25691,0.49168 -0.38013,0.74082 -0.016,0.0307 -0.0335,0.0605 -0.0481,0.0921 -0.0112,0.0245 -0.0212,0.0497 -0.0291,0.0757 -0.006,0.0192 0.004,0.0497 -0.0118,0.0594 -0.39936,0.24435 -2.79048,2.94247 -2.94616,1.37159 0.007,-0.46434 0.0249,-0.92858 0.035,-1.39295 0.0122,-0.61613 0.005,-1.23188 -0.0311,-1.84682 -0.0235,-0.57698 -0.15716,-1.13896 -0.32375,-1.68319 -0.16043,-0.49542 -0.41804,-0.94114 -0.67807,-1.37796 -0.17427,-0.29557 -0.37213,-0.57244 -0.57141,-0.84729 -0.0682,-0.15197 -0.16971,-0.28141 -0.24999,-0.42446 -0.0896,-0.15973 -0.16434,-0.32507 -0.25996,-0.48119 -0.15473,-0.26289 -0.32688,-0.51162 -0.49448,-0.76416 -0.13204,-0.20224 -0.26455,-0.40395 -0.39554,-0.60706 -0.11677,-0.19352 -0.25353,-0.3698 -0.39531,-0.54088 -0.10596,-0.11034 -0.19446,-0.24429 -0.30548,-0.34871 -0.0515,-0.0484 -0.11002,-0.0868 -0.16342,-0.13256 -0.17009,-0.11595 -0.33448,-0.23919 -0.50402,-0.35604 -0.0868,-0.0476 -0.16766,-0.0999 -0.25812,-0.13859 0,0 2.66035,-1.95654 2.66035,-1.95654 v 0 c 0.0945,0.055 0.18948,0.10951 0.2787,0.1749 0.17924,0.12235 0.35663,0.25112 0.52383,0.39256 0.17694,0.16231 0.33934,0.34063 0.49332,0.52972 0.15,0.18347 0.29449,0.37281 0.41567,0.58154 0.12616,0.20696 0.27059,0.39957 0.39329,0.6093 0.15443,0.2637 0.31289,0.52468 0.4677,0.78805 0.17272,0.28887 0.3317,0.58772 0.51162,0.8716 0.20454,0.28852 0.38106,0.59559 0.55132,0.9106 0.24199,0.47805 0.52386,0.93615 0.6753,1.4637 0.0434,0.1344 0.14768,0.4502 0.18201,0.58773 0.0958,0.38395 0.16045,0.78305 0.18662,1.18 0.0187,0.62109 0.049,1.24083 0.0373,1.86266 0.009,0.43253 0.0137,0.86646 0.0567,1.29684 0.0176,0.17653 0.004,-0.0488 -0.0442,-0.0213 -0.95169,0.54212 -1.87551,1.14256 -2.81271,1.71493 -0.0151,0.009 0.0338,-0.0122 0.0463,-0.0254 0.0408,-0.0429 0.0726,-0.12927 0.0953,-0.18051 0.136,-0.24304 0.26338,-0.49212 0.40039,-0.73457 0.11943,-0.28506 0.29681,-0.53458 0.42044,-0.81808 0.14506,-0.32008 0.33708,-0.60597 0.49852,-0.91611 0.0787,-0.1737 0.16942,-0.3352 0.25421,-0.50446 0.10108,-0.20176 0.18734,-0.41336 0.30464,-0.60546 0.19111,-0.42989 0.33648,-0.88285 0.53125,-1.31113 0.14665,-0.46341 0.30144,-0.92362 0.41523,-1.39894 0.13253,-0.53278 0.3166,-1.04585 0.4411,-1.58124 0.24262,-0.73333 -0.0999,0.285 0.15085,-0.40811 0.0991,-0.27399 0.171,-0.56124 0.26181,-0.83831 0.1208,-0.38852 0.22861,-0.78006 0.33597,-1.1733 0.0833,-0.28901 0.13467,-0.58787 0.17094,-0.88801 1.35063,-0.78009 2.9466,-2.88438 3.12733,-0.9904 -0.003,0.28818 0.003,0.57622 -0.002,0.86436 -0.0104,0.39474 -0.0222,0.78938 -0.0343,1.18406 -0.0162,0.68574 -0.0298,1.37157 -0.0357,2.05752 3e-5,0.74424 0.0117,1.48816 0.037,2.23187 0.006,0.53211 -10e-4,1.06409 0.003,1.59625 0.002,0.53472 -0.005,1.06926 -0.005,1.60397 -0.005,0.63671 -0.0165,1.27333 -0.0247,1.91 -0.004,0.73355 -0.01,1.46796 0.0268,2.20069 0.0111,0.37445 0.0145,0.75178 0.0583,1.12343 0,0 -2.87625,1.62697 -2.87625,1.62697 z"
     inkscape:connector-curvature="0" />
  <path
     style="fill:#000000;fill-opacity:1;stroke-width:0.64265525"
     id="path251"
     d="m 130.96358,295.9832 c 0.20292,-0.0106 0.40545,-0.0291 0.60862,-0.0328 0.26993,0.002 0.53991,1.7e-4 0.80981,0.004 0.37697,0.003 0.75387,0.0137 1.13082,0.0184 0.54739,0.0143 1.09484,0.0154 1.64228,0.006 0.40176,-0.005 0.80122,-0.002 1.20004,-0.0584 0.18398,-0.01 0.36233,-0.051 0.54223,-0.0907 0,0 -2.53885,2.11942 -2.53885,2.11942 v 0 c -0.17954,0.0265 -0.35996,0.0402 -0.54064,0.0538 -0.38723,0.0165 -0.77483,-0.004 -1.16217,-0.008 -0.55221,-0.0101 -1.10441,-0.008 -1.65658,0.005 -0.39158,0.005 -0.78311,0.0139 -1.17469,0.0177 -0.27355,0.005 -0.54747,10e-4 -0.82048,0.0253 -0.20627,0.0187 -0.41469,0.0338 -0.61351,0.10276 0,0 2.57312,-2.16287 2.57312,-2.16287 z"
     inkscape:connector-curvature="0" />
  <path
     style="fill:#000000;fill-opacity:1;stroke-width:0.64265525"
     id="path253"
     d="m 133.77046,296.22623 c -0.0183,0.21194 -0.0165,0.4258 -0.017,0.6386 -4e-4,0.24546 -6.1e-4,0.49097 -0.004,0.73642 0.005,0.28686 1.6e-4,0.57226 -0.0252,0.85781 -0.0379,0.36467 -0.10597,0.72433 -0.15416,1.08721 -0.0629,0.36347 -0.10604,0.73002 -0.13198,1.09889 -0.0252,0.41557 -0.0297,0.83186 -0.0334,1.24817 0.006,0.52085 -0.0506,1.03781 -0.0985,1.55476 -0.0608,0.54107 -0.13327,1.07987 -0.17884,1.62291 -0.0287,0.37829 -0.0174,0.75806 -0.0254,1.13709 0.003,0.36517 -0.005,0.72874 -0.0353,1.09236 -0.0271,0.3368 -0.0293,0.67515 -0.0359,1.01297 -0.004,0.2798 -6.1e-4,0.55979 0.004,0.83957 0.005,0.20045 0.007,0.40094 0.009,0.60145 -0.002,0.19858 -0.003,0.39715 -0.002,0.59579 0.001,0.18999 0.003,0.37997 0.001,0.56995 -0.0145,0.17894 -0.0725,0.35823 -0.14252,0.52062 -0.0346,0.0872 -0.0188,0.0429 -0.0473,0.1328 0,0 -2.89278,1.54787 -2.89278,1.54787 v 0 c 0.0143,-0.12109 0.005,-0.0611 0.0271,-0.18006 0.0189,-0.0674 0.0237,-0.0983 0.0551,-0.1595 0.0115,-0.0224 0.0302,-0.04 0.0397,-0.0635 0.03,-0.0749 0.0219,-0.16486 0.087,-0.21973 0.0439,-0.17178 0.006,-0.35841 0.0203,-0.53512 0.001,-0.19785 6.1e-4,-0.39563 -0.002,-0.59343 0.001,-0.20375 0.004,-0.40748 0.008,-0.61117 0.005,-0.28503 0.008,-0.57011 0.0106,-0.85516 0.004,-0.3476 0.0238,-0.69431 0.0445,-1.04112 0.0193,-0.35535 0.0549,-0.70882 0.036,-1.06568 -0.002,-0.39629 0.0256,-0.79138 0.0548,-1.18614 0.0447,-0.54664 0.13692,-1.08513 0.19114,-1.63031 0.0382,-0.50351 0.10216,-1.00635 0.087,-1.51281 -0.002,-0.41808 -0.0104,-0.8365 0.001,-1.25441 0.017,-0.37822 0.0553,-0.75389 0.12083,-1.12592 0.0485,-0.35464 0.10005,-0.70827 0.15145,-1.06242 0.0195,-0.27325 0.0258,-0.54558 0.02,-0.8198 -0.003,-0.24416 -0.003,-0.48838 -0.004,-0.73255 -5.3e-4,-0.20636 0.002,-0.414 -0.017,-0.61939 0,0 2.87625,-1.62698 2.87625,-1.62698 z"
     inkscape:connector-curvature="0" />
  <path
     style="fill:#000000;fill-opacity:1;stroke-width:0.64265525"
     id="path255"
     d="m 130.57629,311.5226 c 0.23987,-0.0174 0.47984,-0.0271 0.72018,-0.031 0.27157,-0.009 0.54327,-0.006 0.81491,-0.008 0.22234,-0.004 0.44468,-0.003 0.66703,-0.006 0.18395,-0.004 0.36788,-4.8e-4 0.55183,-6.7e-4 0.21597,0.002 0.43195,0.005 0.64793,0.004 0.2079,-0.003 0.41578,-0.004 0.62368,-10e-4 0.19152,-0.0171 0.39546,0.0332 0.58063,-0.0305 0.11359,-0.0452 0.23572,-0.0285 0.34943,-0.071 0.0329,-0.0123 0.064,-0.0301 0.096,-0.045 0.0343,-0.0128 0.0687,-0.0257 0.1031,-0.0385 0.12583,-0.0701 0.0618,-0.0383 0.19198,-0.0957 0,0 -2.51101,2.18664 -2.51101,2.18664 v 0 c -0.13042,0.0542 -0.0628,0.0297 -0.203,0.0727 -0.19421,0.0592 -0.3963,0.0867 -0.59612,0.11117 -0.19658,-0.0114 -0.39361,-0.007 -0.5904,-0.009 -0.20681,0.003 -0.4136,0.002 -0.6204,-0.001 -0.21957,-5.7e-4 -0.43913,0.002 -0.65868,0.004 -0.18322,-4e-4 -0.36641,0.003 -0.54961,-10e-4 -0.21664,-0.003 -0.43328,-0.003 -0.64991,-0.007 -0.26695,-0.001 -0.53398,0.003 -0.80077,0.0127 -0.24866,0.0169 -0.49888,0.0369 -0.74131,0.10453 0,0 2.57448,-2.14954 2.57448,-2.14954 z"
     inkscape:connector-curvature="0" />
  <path
     style="fill:#000000;fill-opacity:1;stroke-width:0.64265525"
     id="path257"
     d="m 139.08231,313.72165 c 0.0421,-0.38246 0.0403,-0.76908 0.0611,-1.15352 0.0722,-0.78179 0.0963,-1.56709 0.11106,-2.35233 0.0101,-0.75608 -0.002,-1.51202 -0.025,-2.26766 -0.0151,-0.5203 -0.0157,-1.04059 -0.0128,-1.56104 0.003,-0.53579 -0.001,-1.07161 0.004,-1.60739 -0.003,-0.54024 -0.002,-1.08041 -5.3e-4,-1.62066 -0.002,-0.43371 -0.0192,-0.86693 -0.0243,-1.30058 -0.0115,-0.28997 -0.008,-0.58016 -0.0138,-0.87027 0.002,-0.23453 -0.008,-0.46892 -0.005,-0.70341 0.001,-0.24034 0.005,-0.48062 0.002,-0.72098 -0.003,-0.22368 -0.004,-0.44752 -10e-4,-0.67121 0.007,-0.23494 4.2e-4,-0.47002 -0.003,-0.70496 -0.001,-0.0953 -0.002,-0.19066 -0.003,-0.28598 0,0 2.85512,-1.61504 2.85512,-1.61504 v 0 c -6.1e-4,0.0965 -0.002,0.19291 -0.003,0.28936 -0.004,0.2361 -0.01,0.47236 -0.003,0.70846 0.003,0.22411 0.002,0.44837 -0.001,0.67247 -0.002,0.23947 0.001,0.47884 0.002,0.7183 0.003,0.23639 -0.008,0.47269 -0.005,0.70912 -0.005,0.29533 -0.002,0.59074 -0.0138,0.88594 -0.005,0.4428 -0.0223,0.88519 -0.0243,1.32804 0.002,0.54045 0.002,1.08081 -5.1e-4,1.62125 0.005,0.53409 10e-4,1.06822 0.004,1.60232 0.003,0.52526 0.003,1.05038 -0.0121,1.57549 -0.0232,0.77032 -0.0384,1.5408 -0.044,2.31155 -0.004,0.76879 -0.008,1.53757 -0.011,2.30637 -0.006,0.35943 -0.001,0.72275 0.0421,1.07938 0,0 -2.87625,1.62698 -2.87625,1.62698 z"
     inkscape:connector-curvature="0" />
  <path
     style="fill:#000000;fill-opacity:1;stroke-width:0.64265525"
     id="path259"
     d="m 139.40939,296.11021 c 0.2525,0.0209 0.5061,0.0232 0.75921,0.0292 0.44057,0.0102 0.88141,0.0116 1.32209,0.009 0.35789,-0.005 0.71574,-0.009 1.07354,-0.0194 0.23842,-0.005 0.47674,-0.005 0.71517,-0.002 0.26193,0.0105 0.52394,-0.002 0.78591,-0.002 0.22645,-10e-4 0.4529,6.8e-4 0.67935,-10e-4 0.10874,0.0115 0.22017,-0.012 0.32871,-6.7e-4 0.11039,0.0114 0.22239,0.0425 0.33284,0.0582 0.13027,0.0172 0.26142,0.0224 0.3924,0.0281 0,0 -2.5881,2.06565 -2.5881,2.06565 v 0 c -0.13721,-0.009 -0.2738,-0.023 -0.40945,-0.0486 -0.21117,-0.0304 -0.42255,-0.024 -0.63529,-0.0225 -0.2253,-0.002 -0.45058,1.7e-4 -0.67588,-10e-4 -0.26015,-1.4e-4 -0.52033,-0.0128 -0.78044,-0.002 -0.23691,0.003 -0.47372,0.003 -0.71061,-0.002 -0.34181,-0.0102 -0.68367,-0.0145 -1.02556,-0.0194 -0.44791,-0.003 -0.89596,-0.001 -1.34377,0.009 -0.27728,0.006 -0.5549,0.009 -0.8317,0.0292 0,0 2.61158,-2.10646 2.61158,-2.10646 z"
     inkscape:connector-curvature="0" />
  <path
     style="fill:#000000;fill-opacity:1"
     id="path280"
     d="m 194.22206,326.1279 c 0.12116,-0.35981 0.1321,-0.73617 0.15684,-1.10987 0.005,-0.0685 0.0861,-0.8816 0.0882,-0.90262 0.18117,-1.54464 0.23122,-3.09976 0.25822,-4.65343 -0.0435,-1.4128 -0.0955,-2.82633 -0.17387,-4.23777 -0.0207,-1.03616 -0.0707,-2.0699 -0.0711,-3.10645 0.0884,-1.28698 0.20643,-2.57142 0.27961,-3.85941 0.0824,-1.25994 0.065,-2.52504 0.0216,-3.78625 -0.0345,-0.88728 -0.0625,-1.77528 -0.10301,-2.66243 -0.0462,-0.67376 -0.028,-1.34908 -0.0358,-2.02366 7.3e-4,-0.61057 -0.02,-1.2203 -0.0293,-1.83092 -0.0197,-0.45629 -0.0463,-0.91264 -0.0482,-1.36944 -0.0318,-0.39797 0.0205,-0.79424 0.0324,-1.19138 0.0499,-0.31159 0.0994,-0.62659 0.21528,-0.92115 0.125,-0.45787 0.21978,-0.92543 0.24918,-1.39956 0.0347,-0.43201 -0.004,-0.8649 0.0248,-1.29681 0.0562,-0.36579 0.15983,-0.71724 0.21384,-1.08358 -0.0148,-0.24686 0.0549,-0.48994 0.0636,-0.73475 0.0112,-0.31184 -0.0359,-0.0559 0.0277,-0.32535 0.025,-0.13729 0.10083,-0.25917 0.1146,-0.39931 0.006,-0.0598 -0.007,-0.12059 -3.7e-4,-0.1804 0.002,-0.0183 0.063,-0.26474 0.0689,-0.28877 0.0533,-0.1474 0.0737,-0.30341 0.10185,-0.45682 0,0 10.03301,-5.01629 10.03301,-5.01629 v 0 c 0.003,0.18558 -0.003,0.36991 -0.01,0.55539 -0.006,0.042 -0.0357,0.25827 -0.052,0.30354 -0.0135,0.0376 -0.0512,0.0645 -0.0607,0.1033 -0.0397,0.16335 0.0266,0.34502 -0.0376,0.50629 -0.0114,0.0452 -0.0228,0.0904 -0.0342,0.13561 -0.0238,0.0314 -0.0582,0.057 -0.0715,0.0941 -0.0199,0.0551 -0.0157,0.11614 -0.0252,0.17395 -0.0291,0.177 -0.0683,0.35222 -0.11411,0.52561 -0.005,0.4039 -0.008,0.81623 -0.15354,1.19867 -0.0401,0.0965 -0.0878,0.19296 -0.10033,0.29871 -0.008,0.0684 8e-4,0.13787 -0.002,0.20674 -0.008,0.23188 -0.0354,0.46312 -0.0351,0.69543 -0.0371,0.49134 -0.0576,0.98351 -0.13088,1.47133 -1.1e-4,0.2213 -0.0281,0.27923 -0.0729,0.48057 -0.0331,0.14874 -0.0353,0.30561 -0.10133,0.44676 -0.0736,0.15709 -0.0833,0.31107 -0.11406,0.48128 -0.0206,0.11418 -0.0548,0.22616 -0.0673,0.34151 -0.007,0.0671 -0.004,0.13492 -0.006,0.20238 -0.002,0.47316 -0.0291,0.94589 -0.0482,1.41857 -0.009,0.62039 -0.0299,1.23997 -0.029,1.8603 -0.008,0.68625 0.0108,1.37315 -0.0336,2.05867 -0.0394,0.92782 -0.0666,1.85615 -0.11302,2.78364 -0.0646,1.30113 -0.12309,2.603 -0.16069,3.90514 -0.0522,1.22792 -0.0918,2.45579 -0.0519,3.68489 -4.4e-4,1.06064 -0.0509,2.11864 -0.0711,3.17892 -0.0773,1.47062 -0.13004,2.94309 -0.17387,4.41495 0.0259,1.46601 0.0685,2.93468 0.25822,4.3903 0.002,0.0225 0.0837,0.74889 0.0882,0.81271 0.0228,0.32141 0.0214,0.64875 0.15684,0.95003 0,0 -10.12142,5.15713 -10.12142,5.15713 z"
     inkscape:connector-curvature="0" />
  <path
     style="fill:#000000;fill-opacity:1"
     id="path282"
     d="m 176.59202,302.30899 c 0.71494,0.18862 1.48019,0.16281 2.21501,0.17194 1.04697,-0.0111 2.09269,0.0748 3.13939,0.0713 0.20067,-6.7e-4 1.82914,-0.051 1.99938,-0.0561 2.23113,-0.066 4.46338,-0.0931 6.69407,-0.17294 1.82763,-0.0545 3.65538,-0.0908 5.48382,-0.10806 1.48383,-0.0463 2.96825,-0.035 4.45253,-0.037 1.46388,0.0291 2.92781,-0.003 4.39164,-0.008 1.29952,-0.007 2.5989,-0.0288 3.89828,-0.049 0.97781,-0.0304 1.95609,-0.0453 2.93389,-0.0754 0.97372,-0.003 1.94511,0.0696 2.91858,0.0933 1.19817,0.0422 2.39964,-0.002 3.59608,-0.0743 0.77397,-0.0473 1.54806,-0.0366 2.32246,-0.0143 0.75544,0.0217 1.51056,-0.0125 2.2644,-0.0589 0.41042,-0.0451 0.81947,-0.0376 1.23063,-0.0214 0.53433,0.0316 1.06969,0.0287 1.60463,0.0226 0.44658,-0.009 0.89281,-0.0266 1.33916,-0.0433 0.36051,-0.0112 0.72128,0.006 1.08099,0.0296 0.43415,0.002 0.86805,-0.0146 1.30209,-0.0228 0.39505,-0.005 0.78986,0.014 1.18485,0.011 0.23699,-0.0365 0.51507,0.0255 0.74877,-0.0215 0.0466,-0.009 0.0863,-0.0403 0.13153,-0.0551 0.05,-0.0164 0.10223,-0.0254 0.15334,-0.0381 0.16895,-0.0723 0.47515,-0.0167 0.63411,-0.0591 0.0415,-0.0111 0.0737,-0.0439 0.1106,-0.0658 0,0 -9.00067,6.78244 -9.00067,6.78244 v 0 c -0.25331,-0.0253 -0.4941,0.0396 -0.74666,0.0633 -0.35517,0.01 -0.71114,-0.0524 -1.06788,-0.0404 -0.40504,-0.003 -0.80992,0.0162 -1.21501,0.011 -0.41315,-0.008 -0.82611,-0.0254 -1.23937,-0.0228 -0.387,0.0217 -0.77496,0.0407 -1.16257,0.0296 -0.40664,-0.017 -0.81314,-0.0347 -1.22005,-0.0433 -0.5557,-0.007 -1.11167,-0.007 -1.66687,0.0226 -0.39157,0.014 -0.78148,0.0295 -1.17177,-0.0214 -0.69955,-0.0518 -1.40079,-0.0802 -2.10235,-0.0589 -0.76121,0.0203 -1.52242,0.0364 -2.28304,-0.0143 -1.12762,-0.0823 -2.26152,-0.11394 -3.39146,-0.0743 -1.0589,0.0241 -2.11619,0.0933 -3.1753,0.0933 -0.90864,-0.0305 -1.81783,-0.0445 -2.72648,-0.0753 -1.25444,-0.0203 -2.50889,-0.0422 -3.76348,-0.049 -1.4562,-0.006 -2.91249,-0.0375 -4.36876,-0.009 -1.4486,-0.003 -2.89741,0.008 -4.3455,-0.0404 -1.73869,-0.0168 -3.477,-0.0522 -5.21548,-0.0721 -2.21863,-0.0303 -4.43848,0.0355 -6.65234,0.18494 -1.87841,0.11622 -3.75929,0.18547 -5.63575,0.33322 -0.95079,0.0707 -1.90877,0.10333 -2.8517,0.24617 0,0 9.17226,-6.66404 9.17226,-6.66404 z"
     inkscape:connector-curvature="0" />
  <path
     style="fill:#000000;fill-opacity:1"
     id="path290"
     d="m 177.07136,321.67634 c 0.44151,-0.50713 0.78406,-1.08096 1.11621,-1.66245 0.42821,-0.74456 0.89002,-1.47098 1.35653,-2.19249 0.50625,-0.80396 1.0795,-1.55966 1.68195,-2.29305 0.49966,-0.63887 1.12254,-1.15799 1.71145,-1.70989 0.64667,-0.6459 1.3548,-1.22623 2.06167,-1.80451 0.8424,-0.69147 1.73586,-1.31415 2.63726,-1.92528 0.90301,-0.63175 1.81658,-1.24845 2.72025,-1.87911 0.56994,-0.36112 1.11433,-0.75971 1.66502,-1.14887 0.72062,-0.54926 1.47239,-1.05796 2.22982,-1.55544 3.53541,-2.11767 7.11783,-4.13911 10.69598,-6.19617 0.87626,-0.50376 0.23116,-0.0966 1.11336,-0.56887 0.18207,-0.0975 0.3566,-0.20843 0.5349,-0.31265 0.55225,-0.28692 1.133,-0.5215 1.68419,-0.81005 0.17749,-0.0929 0.34356,-0.20651 0.52036,-0.30073 0.17906,-0.0954 0.3644,-0.17857 0.5466,-0.26785 0.17914,-0.0966 0.35828,-0.19313 0.53742,-0.2897 1.08411,-0.47751 2.14913,-0.99545 3.2243,-1.49213 0.48497,-0.17453 0.92612,-0.4442 1.38878,-0.66484 0.41858,-0.19962 0.85454,-0.36029 1.27347,-0.56086 0.13441,-0.0615 0.27114,-0.11815 0.40325,-0.18443 0.56091,-0.2814 0.16162,-0.12375 0.73985,-0.3881 0.36909,-0.16873 0.74006,-0.32715 1.1058,-0.50428 0.22225,-0.11347 0.46978,-0.16047 0.69837,-0.2567 0.10683,-0.045 0.20616,-0.1061 0.31076,-0.15605 0.28875,-0.13788 0.56484,-0.24533 0.87518,-0.32044 0.14009,-0.0831 0.30457,-0.0966 0.45294,-0.15544 0.14323,-0.0568 0.20366,-0.11946 0.34171,-0.18327 0.11634,-0.0538 0.23885,-0.0932 0.35647,-0.14409 0.0693,-0.0136 0.1418,-0.0159 0.20794,-0.0407 0.12066,-0.0452 0.22062,-0.13317 0.33244,-0.19715 0.19887,-0.11376 0.36656,-0.17394 0.59192,-0.21487 0.73224,-0.41072 -0.36287,0.19244 0.34835,-0.16409 0.0526,-0.0263 0.0962,-0.0683 0.14844,-0.0953 0.18382,-0.0948 0.36305,-0.12601 0.55133,-0.22629 0,0 -8.78709,6.95254 -8.78709,6.95254 v 0 c -0.35955,0.12341 -0.68484,0.34029 -1.06197,0.41919 -0.18046,0.11112 -0.35746,0.21066 -0.55617,0.28679 -0.0644,0.0247 -0.13063,0.0444 -0.19595,0.0665 -0.0624,0.0149 -0.12726,0.0219 -0.18718,0.0448 -0.0641,0.0245 -0.1213,0.0643 -0.18195,0.0964 -0.11952,0.0472 -0.23552,0.10341 -0.35651,0.14673 -0.25227,0.0903 -0.52237,0.12502 -0.77145,0.22738 -0.54906,0.25756 -1.12612,0.44502 -1.6684,0.7175 -0.72926,0.32895 -1.44056,0.69407 -2.17736,1.00629 -0.8645,0.37517 -1.71312,0.78498 -2.57645,1.16309 -1.03631,0.47655 -2.09038,0.91763 -3.09464,1.4606 -1.08608,0.55886 -2.18193,1.0982 -3.25914,1.67388 -0.47408,0.24938 -0.64434,0.3353 -1.10873,0.59376 -0.17591,0.0979 -0.69945,0.39903 -0.52516,0.29828 14.83981,-8.57842 10.60588,-6.20263 7.51533,-4.32047 -0.39458,0.21839 -0.76748,0.4586 -1.13701,0.71733 -0.10443,0.0731 -0.20426,0.15261 -0.30638,0.22891 -0.0935,0.0732 -0.18364,0.15117 -0.28065,0.21977 -0.0909,0.0643 -0.18835,0.11894 -0.28252,0.17842 -0.57032,0.47054 -1.17778,0.89593 -1.79649,1.30021 -0.99833,0.58904 -1.96955,1.22659 -2.90766,1.90768 -0.85374,0.60727 -1.73249,1.18207 -2.5579,1.82679 -0.36355,0.2722 -0.7271,0.55044 -1.06758,0.85168 -0.14806,0.13099 -0.42472,0.41786 -0.57547,0.54693 -0.0976,0.0835 -0.20325,0.15713 -0.30487,0.23569 -0.0166,0.0167 -0.54826,0.55136 -0.56482,0.56651 -0.0984,0.09 -0.20772,0.16732 -0.30701,0.25626 -0.1005,0.09 -0.18983,0.19221 -0.29202,0.28032 -0.10692,0.0922 -0.22704,0.16826 -0.33446,0.25987 -0.11247,0.0959 -0.21638,0.20145 -0.32456,0.30217 -0.63496,0.67209 -1.2351,1.37323 -1.75014,2.14325 -0.43822,0.68782 -0.84815,1.39243 -1.27714,2.08534 -0.27265,0.49743 -0.53246,0.99996 -0.73627,1.53017 0,0 -10.3685,4.59547 -10.3685,4.59547 z"
     inkscape:connector-curvature="0" />
  <path
     style="fill:#000000;fill-opacity:1"
     id="path296"
     d="m 209.90787,314.57092 c -0.0195,-0.008 -0.0438,-0.009 -0.0584,-0.024 -0.0311,-0.0324 -0.044,-0.0791 -0.0733,-0.11311 -0.0341,-0.0395 -0.0781,-0.0692 -0.11547,-0.10559 -0.0437,-0.0426 -0.25411,-0.26396 -0.28943,-0.29507 -0.0611,-0.0538 -0.12882,-0.0994 -0.19323,-0.14915 -0.45978,-0.32172 -0.8543,-0.72582 -1.27909,-1.09053 -0.21849,-0.27715 -0.46935,-0.52691 -0.69893,-0.79411 -0.10741,-0.12501 -0.20655,-0.25692 -0.3125,-0.38316 -0.0546,-0.0619 -0.11125,-0.12203 -0.16376,-0.18569 -0.0557,-0.0676 -0.10411,-0.14105 -0.16083,-0.20778 -0.27399,-0.32233 -0.58521,-0.60612 -0.91613,-0.86773 -0.28089,-0.21712 -0.55495,-0.44643 -0.84619,-0.64992 -0.0981,-0.0686 -0.20372,-0.12604 -0.30159,-0.19496 -0.68041,-0.47914 0.10664,0.0284 -0.57211,-0.39874 -0.24942,-0.15648 -0.48438,-0.33677 -0.73118,-0.49661 -0.23269,-0.15071 -0.48608,-0.27491 -0.7256,-0.41457 -2.27041,-1.51212 -0.31733,-0.20407 6.07908,3.50239 0.0896,0.0519 -0.17868,-0.10481 -0.26849,-0.1564 -0.0919,-0.0528 -0.18501,-0.10369 -0.27677,-0.15684 -7.33118,-4.24627 -4.52728,-2.64574 -7.12073,-4.12532 -2.35611,-1.38903 -0.34692,-0.20337 5.92641,3.42012 0.0959,0.0554 -0.19002,-0.11381 -0.28739,-0.1665 -0.3159,-0.17093 -0.63825,-0.33096 -0.95451,-0.50164 -2.88375,-1.56271 -5.69779,-3.24422 -8.53955,-4.88655 -1.34966,-0.83703 0.66709,0.41949 -0.75629,-0.4877 -0.1381,-0.088 -0.28247,-0.16603 -0.41966,-0.25547 -0.44272,-0.28865 -0.85741,-0.62113 -1.28297,-0.93394 -0.82208,-0.6304 -1.68273,-1.20763 -2.51778,-1.81987 -0.63219,-0.42264 -1.1676,-0.96316 -1.74686,-1.45103 -0.46666,-0.37492 -0.93876,-0.74568 -1.42316,-1.09744 -0.20803,-0.1533 -0.42738,-0.29093 -0.63379,-0.44647 -0.16011,-0.12066 -0.22523,-0.19544 -0.40056,-0.29162 -0.0633,-0.0347 -0.13236,-0.0577 -0.19854,-0.0865 -0.0876,-0.10284 -0.22358,-0.12974 -0.32803,-0.20548 -0.0477,-0.0346 -0.0801,-0.0877 -0.12806,-0.12188 -0.0428,-0.0306 -0.0954,-0.0446 -0.14132,-0.0703 -0.1373,-0.077 -0.1305,-0.0821 -0.24913,-0.18605 -0.0408,-0.0365 -0.0785,-0.0768 -0.1223,-0.10965 -0.0828,-0.062 -0.17776,-0.10604 -0.26308,-0.16451 -0.15867,-0.10875 -0.24675,-0.19401 -0.42234,-0.28496 -0.0506,-0.0319 -0.10495,-0.0585 -0.15173,-0.0958 -0.0491,-0.0391 -0.0842,-0.0942 -0.13424,-0.13205 -0.0467,-0.0353 -0.10512,-0.0525 -0.15345,-0.0856 -0.048,-0.0329 -0.0849,-0.081 -0.13446,-0.11146 -0.28735,-0.17651 -0.007,0.0812 -0.25686,-0.17632 -0.0485,-0.025 -0.10435,-0.0391 -0.14537,-0.0751 -0.0494,-0.0433 -0.0744,-0.10881 -0.11927,-0.15674 -0.045,-0.0481 -0.1002,-0.0855 -0.1489,-0.12976 -0.17373,-0.15802 -0.28959,-0.2613 -0.49239,-0.38554 -0.4052,-0.29798 -0.84822,-0.53893 -1.27539,-0.80337 -2.28255,-1.33215 -2.39477,-1.3972 6.20523,3.58263 0.0678,0.0393 -0.13742,-0.0756 -0.20754,-0.11067 -0.18258,-0.0913 -0.37356,-0.15751 -0.55994,-0.24003 -0.33546,-0.16473 -0.66489,-0.33615 -0.99113,-0.51808 -0.23761,-0.10506 -0.45059,-0.26161 -0.68759,-0.36697 -0.31554,-0.14026 0.002,0.0327 -0.28361,-0.13168 -0.20134,-0.14424 -0.44142,-0.18414 -0.672,-0.25622 -0.18116,-0.091 -0.35328,-0.19497 -0.54722,-0.25692 -0.11353,-0.0265 -0.0563,-0.0152 -0.17158,-0.0338 0,0 -6.42932,-4.72091 -6.42932,-4.72091 v 0 c 0.13862,-0.006 0.0686,-0.003 0.21009,-0.009 0.24145,-0.006 0.48712,-0.006 0.71361,0.0905 0.0628,0.0384 0.12026,0.0868 0.18786,0.11588 0.038,0.0163 0.0805,0.0195 0.11946,0.0334 0.0401,0.0143 0.0763,0.039 0.11714,0.0512 0.10042,0.0301 0.21008,0.0241 0.30567,0.0742 0.40357,0.15759 -0.0862,-0.047 0.31112,0.16385 0.0948,0.0503 0.27329,0.10205 0.36816,0.14902 0.0613,0.0304 0.11606,0.0727 0.17608,0.10564 0.0603,0.033 0.12304,0.0613 0.18455,0.092 0.11475,0.057 0.2339,0.10582 0.34452,0.17047 0.0502,0.0293 0.0928,0.0705 0.14338,0.0991 0.15749,0.089 0.33033,0.15627 0.48854,0.24492 0.12248,0.0723 0.23974,0.15421 0.36707,0.21762 0.14698,0.0732 0.31375,0.10387 0.45657,0.18489 6.28038,3.56293 4.65402,2.54458 7.07813,4.06842 0.43856,0.27151 0.86705,0.55842 1.27435,0.8754 0.1744,0.15314 0.3493,0.30392 0.52978,0.44982 0.0501,0.0405 0.0958,0.087 0.14996,0.12187 0.0579,0.0374 0.12618,0.0566 0.18421,0.0937 0.0503,0.0322 0.0926,0.0754 0.13884,0.1131 0.0506,0.0258 0.1049,0.0453 0.15168,0.0774 0.0417,0.0287 0.0712,0.0723 0.11122,0.10328 0.0383,0.0297 0.0837,0.0493 0.12273,0.0781 0.0478,0.0353 0.0879,0.0804 0.13708,0.11368 0.0482,0.0326 0.10366,0.0531 0.1535,0.0831 0.0514,0.0309 0.0998,0.0664 0.14975,0.0996 0.14015,0.11115 0.28568,0.20487 0.43183,0.30738 0.0495,0.0347 0.0976,0.0714 0.14636,0.10716 0.0375,0.0317 0.0728,0.0662 0.11248,0.0951 0.0427,0.0312 0.0893,0.0566 0.13393,0.0849 0.10353,0.0584 0.16971,0.0908 0.26364,0.16158 0.0418,0.0315 0.0768,0.072 0.12051,0.10087 0.0421,0.0278 0.0921,0.0417 0.13511,0.0679 0.0453,0.0276 0.0861,0.0621 0.12919,0.0932 0.0517,0.0309 0.1035,0.0618 0.15525,0.0928 0.36319,0.3128 0.76367,0.57495 1.13765,0.87448 0.43471,0.36025 0.8839,0.70359 1.29649,1.09001 0.52463,0.46251 1.04463,0.93102 1.61735,1.33514 0.80283,0.58904 1.60212,1.18288 2.40605,1.77043 0.85012,0.6054 1.73545,1.15707 2.64057,1.67672 -2.02575,-1.16655 -4.05398,-2.32883 -6.07726,-3.49966 -0.11438,-0.0662 0.23478,0.12143 0.35029,0.18559 0.11349,0.063 0.22214,0.13463 0.33657,0.19593 0.11389,0.061 0.23467,0.10869 0.34796,0.17082 0.11182,0.0613 0.21441,0.13866 0.32668,0.19916 0.11009,0.0593 0.22629,0.10653 0.33943,0.15979 0.29578,0.17564 0.59626,0.35377 0.90495,0.50612 0.10505,0.0519 0.21971,0.084 0.32143,0.14216 3.9426,2.25277 4.68611,2.68891 7.1181,4.1129 2.357,1.419 0.39992,0.23836 -5.96517,-3.43852 -0.0887,-0.0512 0.17689,0.10342 0.26621,0.15359 0.0873,0.049 0.17683,0.0939 0.26347,0.14396 5.55724,3.21257 4.61224,2.66082 7.08419,4.10517 0.48145,0.29046 0.93897,0.61656 1.39429,0.94611 0.55169,0.42656 1.1284,0.8229 1.63799,1.302 0.47278,0.452 0.92,0.92927 1.34526,1.42627 0.32265,0.37244 0.64656,0.7505 1.02559,1.06704 0.41126,0.37838 0.85444,0.71839 1.27873,1.08121 0.19236,0.18373 0.39394,0.36134 0.57998,0.55153 0.0469,0.048 0.087,0.1023 0.13469,0.14953 0.0417,0.0414 0.0936,0.0721 0.13299,0.11581 0.0386,0.0429 0.0661,0.0946 0.0991,0.14188 0,0 -7.37661,-3.17886 -7.37661,-3.17886 z"
     inkscape:connector-curvature="0" />
</svg>
